name ./resultDataOpenSim/trcMotMarkerGrf/sub09/grf-04-07.mot
datacolumns 19
datarows 17
range 1.46400000 1.52800000
endheader

                time	     ground_force_vx	     ground_force_vy	     ground_force_vz	     ground_force_px	     ground_force_py	     ground_force_pz	   l_ground_force_vx	   l_ground_force_vy	   l_ground_force_vz	   l_ground_force_px	   l_ground_force_py	   l_ground_force_pz	     ground_torque_x	     ground_torque_y	     ground_torque_z	   l_ground_torque_x	   l_ground_torque_y	   l_ground_torque_z	
          1.46400000	        -35.20971196	        481.47303757	        -23.22252093	          0.94883716	          0.00000000	          0.08378313	          0.00000000	          0.00000000	          0.00000000	          0.00000000	          0.00000000	          0.00000000	          0.00000000	          3.16142067	          0.00000000	          0.00000000	          0.00000000	          0.00000000	
          1.46800000	        -33.83049320	        476.00081090	        -26.32765467	          0.95119525	          0.00000000	          0.08400588	          0.00000000	          0.00000000	          0.00000000	          0.00000000	          0.00000000	          0.00000000	          0.00000000	          3.14619942	          0.00000000	          0.00000000	          0.00000000	          0.00000000	
          1.47200000	        -31.79902227	        470.99983897	        -29.33739110	          0.95345103	          0.00000000	          0.08426310	          0.00000000	          0.00000000	          0.00000000	          0.00000000	          0.00000000	          0.00000000	          0.00000000	          3.10807764	          0.00000000	          0.00000000	          0.00000000	          0.00000000	
          1.47600000	        -29.41645641	        466.55573634	        -31.65551483	          0.95563774	          0.00000000	          0.08451363	          0.00000000	          0.00000000	          0.00000000	          0.00000000	          0.00000000	          0.00000000	          0.00000000	          3.06921833	          0.00000000	          0.00000000	          0.00000000	          0.00000000	
          1.48000000	        -27.08313974	        462.70393734	        -32.81767009	          0.95779566	          0.00000000	          0.08471114	          0.00000000	          0.00000000	          0.00000000	          0.00000000	          0.00000000	          0.00000000	          0.00000000	          3.05490980	          0.00000000	          0.00000000	          0.00000000	          0.00000000	
          1.48400000	        -25.19308001	        459.42574994	        -32.56980497	          0.95997397	          0.00000000	          0.08482237	          0.00000000	          0.00000000	          0.00000000	          0.00000000	          0.00000000	          0.00000000	          0.00000000	          3.08743781	          0.00000000	          0.00000000	          0.00000000	          0.00000000	
          1.48800000	        -24.03118969	        456.67028334	        -30.90772837	          0.96222958	          0.00000000	          0.08483189	          0.00000000	          0.00000000	          0.00000000	          0.00000000	          0.00000000	          0.00000000	          0.00000000	          3.18002651	          0.00000000	          0.00000000	          0.00000000	          0.00000000	
          1.49200000	        -23.69386777	        454.37026179	        -28.07490300	          0.96458723	          0.00000000	          0.08474318	          0.00000000	          0.00000000	          0.00000000	          0.00000000	          0.00000000	          0.00000000	          0.00000000	          3.33266928	          0.00000000	          0.00000000	          0.00000000	          0.00000000	
          1.49600000	        -24.05933569	        452.44861893	        -24.51522555	          0.96704047	          0.00000000	          0.08458614	          0.00000000	          0.00000000	          0.00000000	          0.00000000	          0.00000000	          0.00000000	          0.00000000	          3.53133262	          0.00000000	          0.00000000	          0.00000000	          0.00000000	
          1.50000000	        -24.82159624	        450.83735747	        -20.78645552	          0.96954464	          0.00000000	          0.08441133	          0.00000000	          0.00000000	          0.00000000	          0.00000000	          0.00000000	          0.00000000	          0.00000000	          3.75089011	          0.00000000	          0.00000000	          0.00000000	          0.00000000	
          1.50400000	        -25.58027124	        449.49667804	        -17.45647762	          0.97202983	          0.00000000	          0.08426385	          0.00000000	          0.00000000	          0.00000000	          0.00000000	          0.00000000	          0.00000000	          0.00000000	          3.96081540	          0.00000000	          0.00000000	          0.00000000	          0.00000000	
          1.50800000	        -25.95853493	        448.40910075	        -15.00334780	          0.97444438	          0.00000000	          0.08416839	          0.00000000	          0.00000000	          0.00000000	          0.00000000	          0.00000000	          0.00000000	          0.00000000	          4.13184408	          0.00000000	          0.00000000	          0.00000000	          0.00000000	
          1.51200000	        -25.70819442	        447.55361242	        -13.73372322	          0.97674964	          0.00000000	          0.08413590	          0.00000000	          0.00000000	          0.00000000	          0.00000000	          0.00000000	          0.00000000	          0.00000000	          4.24186989	          0.00000000	          0.00000000	          0.00000000	          0.00000000	
          1.51600000	        -24.76996120	        446.89298162	        -13.73606452	          0.97894868	          0.00000000	          0.08417078	          0.00000000	          0.00000000	          0.00000000	          0.00000000	          0.00000000	          0.00000000	          0.00000000	          4.28005571	          0.00000000	          0.00000000	          0.00000000	          0.00000000	
          1.52000000	        -23.27613343	        446.39581679	        -14.87926090	          0.98106614	          0.00000000	          0.08427214	          0.00000000	          0.00000000	          0.00000000	          0.00000000	          0.00000000	          0.00000000	          0.00000000	          4.24884005	          0.00000000	          0.00000000	          0.00000000	          0.00000000	
          1.52400000	        -21.50289142	        446.06294443	        -16.84554503	          0.98312761	          0.00000000	          0.08443171	          0.00000000	          0.00000000	          0.00000000	          0.00000000	          0.00000000	          0.00000000	          0.00000000	          4.16373219	          0.00000000	          0.00000000	          0.00000000	          0.00000000	
          1.52800000	        -19.79328468	        445.92464603	        -19.18599298	          0.98516515	          0.00000000	          0.08463406	          0.00000000	          0.00000000	          0.00000000	          0.00000000	          0.00000000	          0.00000000	          0.00000000	          4.05070173	          0.00000000	          0.00000000	          0.00000000	          0.00000000	
